<?xml version="1.0" standalone="no"?>
<!DOCTYPE svg PUBLIC "-//W3C//DTD SVG 1.1//EN" "http://www.w3.org/Graphics/SVG/1.1/DTD/svg11.dtd" >
<svg xmlns="http://www.w3.org/2000/svg" xmlns:xlink="http://www.w3.org/1999/xlink" version="1.1">
<metadata>
Created by FontForge 20190801 at Thu Dec  5 16:17:46 2019
 By Jimmy Wärting
copyright missing
</metadata>
<defs>
<font id="Nuevafuente-Regular" horiz-adv-x="360" >
  <font-face 
    font-family="Nueva fuente"
    font-weight="400"
    font-stretch="normal"
    units-per-em="1000"
    panose-1="0 0 5 0 0 0 0 0 0 0"
    ascent="800"
    descent="-200"
    x-height="700"
    cap-height="700"
    bbox="10 -200 1600 838"
    underline-thickness="50"
    underline-position="-100"
    unicode-range="U+0020-2212"
  />
<missing-glyph horiz-adv-x="500" 
d="M410 800v-1000h-317v1000h317zM333 118h-166v-113h166v113zM300 85v-47h-100v47h100zM333 291h-100v-56h34v23h33v-47h-100v80h-33v-113h166v113zM333 413h-33v-66h-133v-34h166v100zM333 473h-166v-33h66v-37h-66v-33h100v70h66v33zM233 570v-36h-33v36h33zM267 604
h-100v-104h166v34h-66v70zM333 733h-165v-33h65v-37h-66v-33h166v33h-66v37h66v33zM333 -18h-166v-33h70l-70 -47v-33h166v33h-102l70 47h32v33z" />
    <glyph glyph-name=".notdef" horiz-adv-x="500" 
d="M410 800v-1000h-317v1000h317zM333 118h-166v-113h166v113zM300 85v-47h-100v47h100zM333 291h-100v-56h34v23h33v-47h-100v80h-33v-113h166v113zM333 413h-33v-66h-133v-34h166v100zM333 473h-166v-33h66v-37h-66v-33h100v70h66v33zM233 570v-36h-33v36h33zM267 604
h-100v-104h166v34h-66v70zM333 733h-165v-33h65v-37h-66v-33h166v33h-66v37h66v33zM333 -18h-166v-33h70l-70 -47v-33h166v33h-102l70 47h32v33z" />
    <glyph glyph-name="A" unicode="A" horiz-adv-x="710" 
d="M218 119l-38 -119h-170l250 700h180l260 -700h-170l-40 119h-272zM352 538l-90 -284h183z" />
    <glyph glyph-name="B" unicode="B" horiz-adv-x="679" 
d="M100 700h249c143 0 230 -72 230 -190c0 -63 -24 -114 -63 -134c64 -26 103 -89 103 -167c0 -130 -81 -209 -240 -209h-279v700zM352 416c40 0 65 28 65 76s-25 76 -65 76h-93v-152h93zM370 131c54 0 88 33 88 86s-34 86 -88 86h-112v-172h112z" />
    <glyph glyph-name="C" unicode="C" horiz-adv-x="790" 
d="M60 350c0 226 119 365 314 365h30c190 0 306 -103 306 -270h-169c0 79 -52 127 -137 127h-30c-91 0 -147 -84 -147 -222s56 -222 147 -222h30c85 0 137 48 137 127h169c0 -167 -116 -270 -306 -270h-30c-195 0 -314 139 -314 365z" />
    <glyph glyph-name="D" unicode="D" horiz-adv-x="768" 
d="M309 700c247 0 399 -133 399 -350s-152 -350 -399 -350h-209v700h209zM309 140c144 0 232 80 232 210s-88 210 -232 210h-49v-420h49z" />
    <glyph glyph-name="E" unicode="E" horiz-adv-x="657" 
d="M260 430h277v-140h-277v-150h317v-140h-477v700h477v-140h-317v-130z" />
    <glyph glyph-name="F" unicode="F" horiz-adv-x="597" 
d="M260 410h247v-140h-247v-270h-160v700h457v-140h-297v-150z" />
    <glyph glyph-name="G" unicode="G" horiz-adv-x="816" 
d="M60 350c0 226 120 365 325 365h30c192 0 310 -96 310 -250h-169c0 66 -54 106 -141 106h-30c-101 0 -158 -84 -158 -221c0 -138 62 -222 163 -222h30c93 0 150 50 150 131h-210v122h376v-92c0 -186 -120 -301 -316 -304h-30c-205 0 -330 139 -330 365z" />
    <glyph glyph-name="H" unicode="H" horiz-adv-x="780" 
d="M680 0h-160v280h-260v-280h-160v700h160v-280h260v280h160v-700z" />
    <glyph glyph-name="I" unicode="I" 
d="M100 700h160v-700h-160v700z" />
    <glyph glyph-name="J" unicode="J" horiz-adv-x="730" 
d="M233 256c0 -72 36 -127 115 -127h16c107 0 116 79 116 187v244h-410v140h570v-384c0 -227 -78 -330 -271 -330h-26c-200 0 -273 108 -273 270h163z" />
    <glyph glyph-name="K" unicode="K" horiz-adv-x="744" 
d="M100 700h160v-270h89l193 270h182l-240 -339l245 -361h-189l-193 280h-87v-280h-160v700z" />
    <glyph glyph-name="L" unicode="L" horiz-adv-x="547" 
d="M100 700h160v-560h257v-140h-417v700z" />
    <glyph glyph-name="M" unicode="M" horiz-adv-x="980" 
d="M100 700h160l230 -416l230 416h160v-700h-155v410l-175 -305h-120l-175 305v-410h-155v700z" />
    <glyph glyph-name="N" unicode="N" horiz-adv-x="780" 
d="M100 700h160l265 -447v447h155v-700h-160l-265 454v-454h-155v700z" />
    <glyph glyph-name="O" unicode="O" horiz-adv-x="830" 
d="M430 715c207 0 340 -139 340 -365s-133 -365 -340 -365h-30c-207 0 -340 139 -340 365s133 365 340 365h30zM430 128c103 0 173 84 173 222c0 137 -70 222 -173 222h-30c-103 0 -173 -85 -173 -222c0 -138 70 -222 173 -222h30z" />
    <glyph glyph-name="P" unicode="P" horiz-adv-x="665" 
d="M100 700h235c174 0 280 -100 280 -262c0 -166 -106 -267 -280 -267h-75v-171h-160v700zM335 311c69 0 111 47 111 125c0 77 -42 124 -111 124h-75v-249h75z" />
    <glyph glyph-name="Q" unicode="Q" horiz-adv-x="850" 
d="M410 -15c-217 0 -350 139 -350 365c0 227 133 365 350 365h30c217 0 350 -138 350 -365c0 -139 -52 -246 -141 -307l103 -165h-180l-75 110c-18 -2 -37 -3 -57 -3h-30zM440 128c113 0 183 84 183 222s-70 222 -183 222h-30c-113 0 -183 -84 -183 -222s70 -222 183 -222
h30z" />
    <glyph glyph-name="R" unicode="R" horiz-adv-x="715" 
d="M100 700h265c167 0 270 -94 270 -247c0 -92 -36 -163 -100 -206l130 -247h-184l-106 201h-115v-201h-160v700zM365 341c63 0 101 42 101 110s-38 109 -101 109h-105v-219h105z" />
    <glyph glyph-name="S" unicode="S" horiz-adv-x="711" 
d="M231 240c0 -75 44 -118 114 -118h42c60 0 96 27 96 75c0 67 -95 77 -167 92c-159 32 -235 63 -235 208c0 138 95 218 250 218h40c167 0 266 -93 261 -244h-166c3 67 -35 107 -95 107h-42c-53 -2 -85 -23 -85 -65c0 -50 21 -70 135 -88c140 -23 267 -50 267 -219
c0 -140 -99 -221 -261 -221h-40c-179 0 -285 97 -280 255h166z" />
    <glyph glyph-name="T" unicode="T" horiz-adv-x="580" 
d="M210 560h-190v140h540v-140h-190v-560h-160v560z" />
    <glyph glyph-name="U" unicode="U" horiz-adv-x="796" 
d="M706 294c0 -198 -109 -309 -289 -309h-30c-185 0 -297 111 -297 309v406h160v-396c0 -107 52 -174 137 -174h30c80 0 129 66 129 174v396h160v-406z" />
    <glyph glyph-name="V" unicode="V" horiz-adv-x="710" 
d="M10 700h180l166 -512l164 512h180l-255 -700h-180z" />
    <glyph glyph-name="W" unicode="W" horiz-adv-x="1120" 
d="M40 700h170l78 -512l182 512h180l182 -511l79 511h169l-143 -700h-184l-192 524l-194 -524h-184z" />
    <glyph glyph-name="X" unicode="X" horiz-adv-x="709" 
d="M257 358l-231 342h193l134 -233l3 5l134 228h189l-232 -340l242 -360h-189l-147 242l-3 -5l-141 -237h-189z" />
    <glyph glyph-name="Y" unicode="Y" horiz-adv-x="673" 
d="M258 0v283l-248 417h193l135 -263l139 263h186l-245 -417v-283h-160z" />
    <glyph glyph-name="Z" unicode="Z" horiz-adv-x="638" 
d="M587 0h-540v120l331 440h-320v140h530v-120l-333 -440h332v-140z" />
    <glyph glyph-name="a" unicode="a" horiz-adv-x="710" 
d="M218 119l-38 -119h-170l250 700h180l260 -700h-170l-40 119h-272zM352 538l-90 -284h183z" />
    <glyph glyph-name="b" unicode="b" horiz-adv-x="679" 
d="M100 700h249c143 0 230 -72 230 -190c0 -63 -24 -114 -63 -134c64 -26 103 -89 103 -167c0 -130 -81 -209 -240 -209h-279v700zM352 416c40 0 65 28 65 76s-25 76 -65 76h-93v-152h93zM370 131c54 0 88 33 88 86s-34 86 -88 86h-112v-172h112z" />
    <glyph glyph-name="c" unicode="c" horiz-adv-x="790" 
d="M60 350c0 226 119 365 314 365h30c190 0 306 -103 306 -270h-169c0 79 -52 127 -137 127h-30c-91 0 -147 -84 -147 -222s56 -222 147 -222h30c85 0 137 48 137 127h169c0 -167 -116 -270 -306 -270h-30c-195 0 -314 139 -314 365z" />
    <glyph glyph-name="d" unicode="d" horiz-adv-x="768" 
d="M309 700c247 0 399 -133 399 -350s-152 -350 -399 -350h-209v700h209zM309 140c144 0 232 80 232 210s-88 210 -232 210h-49v-420h49z" />
    <glyph glyph-name="e" unicode="e" horiz-adv-x="657" 
d="M260 430h277v-140h-277v-150h317v-140h-477v700h477v-140h-317v-130z" />
    <glyph glyph-name="f" unicode="f" horiz-adv-x="597" 
d="M260 410h247v-140h-247v-270h-160v700h457v-140h-297v-150z" />
    <glyph glyph-name="g" unicode="g" horiz-adv-x="816" 
d="M60 350c0 226 120 365 325 365h30c192 0 310 -96 310 -250h-169c0 66 -54 106 -141 106h-30c-101 0 -158 -84 -158 -221c0 -138 62 -222 163 -222h30c93 0 150 50 150 131h-210v122h376v-92c0 -186 -120 -301 -316 -304h-30c-205 0 -330 139 -330 365z" />
    <glyph glyph-name="h" unicode="h" horiz-adv-x="780" 
d="M680 0h-160v280h-260v-280h-160v700h160v-280h260v280h160v-700z" />
    <glyph glyph-name="i" unicode="i" 
d="M100 700h160v-700h-160v700z" />
    <glyph glyph-name="j" unicode="j" horiz-adv-x="730" 
d="M233 256c0 -72 36 -127 115 -127h16c107 0 116 79 116 187v244h-410v140h570v-384c0 -227 -78 -330 -271 -330h-26c-200 0 -273 108 -273 270h163z" />
    <glyph glyph-name="k" unicode="k" horiz-adv-x="744" 
d="M100 700h160v-270h89l193 270h182l-240 -339l245 -361h-189l-193 280h-87v-280h-160v700z" />
    <glyph glyph-name="l" unicode="l" horiz-adv-x="547" 
d="M100 700h160v-560h257v-140h-417v700z" />
    <glyph glyph-name="m" unicode="m" horiz-adv-x="980" 
d="M100 700h160l230 -416l230 416h160v-700h-155v410l-175 -305h-120l-175 305v-410h-155v700z" />
    <glyph glyph-name="n" unicode="n" horiz-adv-x="780" 
d="M100 700h160l265 -447v447h155v-700h-160l-265 454v-454h-155v700z" />
    <glyph glyph-name="o" unicode="o" horiz-adv-x="830" 
d="M430 715c207 0 340 -139 340 -365s-133 -365 -340 -365h-30c-207 0 -340 139 -340 365s133 365 340 365h30zM430 128c103 0 173 84 173 222c0 137 -70 222 -173 222h-30c-103 0 -173 -85 -173 -222c0 -138 70 -222 173 -222h30z" />
    <glyph glyph-name="p" unicode="p" horiz-adv-x="665" 
d="M100 700h235c174 0 280 -100 280 -262c0 -166 -106 -267 -280 -267h-75v-171h-160v700zM335 311c69 0 111 47 111 125c0 77 -42 124 -111 124h-75v-249h75z" />
    <glyph glyph-name="q" unicode="q" horiz-adv-x="850" 
d="M410 -15c-217 0 -350 139 -350 365c0 227 133 365 350 365h30c217 0 350 -138 350 -365c0 -139 -52 -246 -141 -307l103 -165h-180l-75 110c-18 -2 -37 -3 -57 -3h-30zM440 128c113 0 183 84 183 222s-70 222 -183 222h-30c-113 0 -183 -84 -183 -222s70 -222 183 -222
h30z" />
    <glyph glyph-name="r" unicode="r" horiz-adv-x="715" 
d="M100 700h265c167 0 270 -94 270 -247c0 -92 -36 -163 -100 -206l130 -247h-184l-106 201h-115v-201h-160v700zM365 341c63 0 101 42 101 110s-38 109 -101 109h-105v-219h105z" />
    <glyph glyph-name="s" unicode="s" horiz-adv-x="711" 
d="M231 240c0 -75 44 -118 114 -118h42c60 0 96 27 96 75c0 67 -95 77 -167 92c-159 32 -235 63 -235 208c0 138 95 218 250 218h40c167 0 266 -93 261 -244h-166c3 67 -35 107 -95 107h-42c-53 -2 -85 -23 -85 -65c0 -50 21 -70 135 -88c140 -23 267 -50 267 -219
c0 -140 -99 -221 -261 -221h-40c-179 0 -285 97 -280 255h166z" />
    <glyph glyph-name="t" unicode="t" horiz-adv-x="580" 
d="M210 560h-190v140h540v-140h-190v-560h-160v560z" />
    <glyph glyph-name="u" unicode="u" horiz-adv-x="796" 
d="M706 294c0 -198 -109 -309 -289 -309h-30c-185 0 -297 111 -297 309v406h160v-396c0 -107 52 -174 137 -174h30c80 0 129 66 129 174v396h160v-406z" />
    <glyph glyph-name="v" unicode="v" horiz-adv-x="710" 
d="M10 700h180l166 -512l164 512h180l-255 -700h-180z" />
    <glyph glyph-name="w" unicode="w" horiz-adv-x="1120" 
d="M40 700h170l78 -512l182 512h180l182 -511l79 511h169l-143 -700h-184l-192 524l-194 -524h-184z" />
    <glyph glyph-name="x" unicode="x" horiz-adv-x="709" 
d="M257 358l-231 342h193l134 -233l3 5l134 228h189l-232 -340l242 -360h-189l-147 242l-3 -5l-141 -237h-189z" />
    <glyph glyph-name="y" unicode="y" horiz-adv-x="673" 
d="M258 0v283l-248 417h193l135 -263l139 263h186l-245 -417v-283h-160z" />
    <glyph glyph-name="z" unicode="z" horiz-adv-x="638" 
d="M587 0h-540v120l331 440h-320v140h530v-120l-333 -440h332v-140z" />
    <glyph glyph-name="zero" unicode="0" horiz-adv-x="840" 
d="M411 -15c-225 0 -341 128 -341 365c0 238 116 365 341 365h18c225 0 341 -127 341 -365c0 -237 -116 -377 -341 -365h-18zM422 133c120 2 181 76 181 217s-60 218 -180 218h-6c-121 0 -180 -77 -180 -218s60 -215 180 -217h5zM341 430h159v-159h-159v159z" />
    <glyph glyph-name="one" unicode="1" horiz-adv-x="646" 
d="M616 0h-576v140h247v249h-192v150h65c84 0 127 34 127 101v59h160v-559h169v-140z" />
    <glyph glyph-name="two" unicode="2" horiz-adv-x="679" 
d="M60 57c0 208 95 264 251 321c90 33 141 41 141 121c0 51 -35 79 -104 79h-2c-73 0 -110 -39 -110 -112h-170c0 172 93 249 274 249h13c174 0 266 -69 266 -198c0 -192 -83 -213 -207 -261c-102 -40 -154 -57 -162 -116h369v-140h-559v57z" />
    <glyph glyph-name="three" unicode="3" horiz-adv-x="688" 
d="M229 224c0 -58 40 -89 119 -89h3c64 0 98 26 98 76c0 54 -24 82 -71 82h-76l1 132l8 3c59 22 93 64 104 122h-177v-74h-169v224h542c0 -134 -39 -233 -114 -289c80 -26 121 -95 121 -202c0 -147 -92 -224 -271 -224h-11c-182 0 -276 83 -276 239h169z" />
    <glyph glyph-name="four" unicode="4" horiz-adv-x="709" 
d="M585 119v-119h-160v119h-385v86c0 128 69 210 170 319c59 64 112 113 112 172v4h170v-3c0 -153 -109 -208 -186 -292c-42 -46 -84 -93 -89 -141h208v131h160v-131h84v-145h-84z" />
    <glyph glyph-name="five" unicode="5" horiz-adv-x="698" 
d="M382 449c169 0 256 -76 256 -225c0 -155 -91 -239 -274 -239h-13c-196 0 -293 79 -291 224h179c-2 -58 34 -88 104 -88h7c72 1 109 35 109 97c0 61 -42 96 -108 96h-6c-41 0 -76 -11 -103 -31l-175 55l42 362h488v-213h-179v75h-159l-20 -143c28 19 78 30 134 30h9z" />
    <glyph glyph-name="six" unicode="6" horiz-adv-x="713" 
d="M384 464c181 2 274 -75 274 -228c0 -166 -95 -251 -280 -251h-30c-200 0 -293 124 -293 365s90 365 283 365h30c180 0 273 -74 273 -218h-171c0 52 -35 79 -102 79h-30c-72 0 -115 -53 -125 -155c31 28 81 43 147 43h24zM373 125c75 0 114 34 114 101
c0 70 -39 106 -114 106h-28c-75 0 -114 -35 -114 -102c0 -69 42 -105 124 -105h18z" />
    <glyph glyph-name="seven" unicode="7" horiz-adv-x="612" 
d="M582 643c0 -200 -36 -267 -156 -379c-86 -80 -119 -171 -120 -257v-7h-168v8c0 187 81 266 201 385c62 61 67 103 67 167h-177v-102h-179v242h532v-57z" />
    <glyph glyph-name="eight" unicode="8" horiz-adv-x="732" 
d="M581 379c60 -31 91 -89 91 -170c0 -148 -98 -224 -289 -224h-34c-191 0 -289 76 -289 224c0 81 31 139 91 170c-42 30 -64 79 -64 145c0 126 88 191 258 191h42c170 0 258 -65 258 -191c0 -66 -22 -115 -64 -145zM355 586c-69 -2 -105 -31 -105 -84c0 -51 36 -77 105 -77
h22c69 0 105 26 105 77c0 53 -36 82 -105 84h-22zM378 122c83 0 125 30 125 87c0 63 -42 95 -125 95h-24c-83 0 -125 -32 -125 -95c0 -57 42 -87 125 -87h24z" />
    <glyph glyph-name="nine" unicode="9" horiz-adv-x="713" 
d="M329 245c-181 -1 -274 76 -274 224c0 161 95 246 280 246h30c200 0 293 -124 293 -365s-90 -365 -283 -365h-30c-180 0 -273 74 -273 218h171c0 -52 35 -79 102 -79h30c72 0 115 58 125 165c-31 -28 -81 -43 -147 -44h-24zM340 575c-75 0 -114 -34 -114 -96
c0 -65 39 -101 114 -101h28c75 0 114 35 114 97c0 64 -42 100 -124 100h-18z" />
    <glyph glyph-name="backslash" unicode="\" horiz-adv-x="540" 
d="M30 700h160l320 -700h-160z" />
    <glyph glyph-name="colon" unicode=":" 
d="M260 413h-160v180h160v-180zM260 92h-160v180h160v-180z" />
    <glyph glyph-name="comma" unicode="," horiz-adv-x="362" 
d="M262 -50c0 -72 -39 -109 -116 -109h-45l-1 69h26c36 0 54 19 54 63v27h-78v180h160v-230z" />
    <glyph glyph-name="exclam" unicode="!" 
d="M120 252l-20 142v306h160v-306l-20 -142h-120zM260 180v-180h-160v180h160z" />
    <glyph glyph-name="period" unicode="." 
d="M260 0h-160v180h160v-180z" />
    <glyph glyph-name="question" unicode="?" horiz-adv-x="653" 
d="M70 486c0 151 89 229 256 229h11c162 0 246 -66 246 -187c0 -113 -35 -134 -99 -180c-54 -39 -100 -57 -100 -117h-160c0 107 50 150 117 188c56 32 75 60 75 101c0 44 -27 67 -80 68h-10c-55 0 -86 -35 -86 -102h-170zM383 180v-180h-160v180h160z" />
    <glyph glyph-name="semicolon" unicode=";" horiz-adv-x="600" 
d="M100 320v180h160v-180h-160zM262 -50c0 -72 -39 -109 -116 -109h-45l-1 69h26c36 0 54 19 54 63v27h-78v180h160v-230z" />
    <glyph glyph-name="slash" unicode="/" horiz-adv-x="540" 
d="M30 0l320 700h160l-320 -700h-160z" />
    <glyph glyph-name="emdash.ss01" horiz-adv-x="991" 
d="M891 277h-791v130h791v-130z" />
    <glyph glyph-name="emdash.ss08" horiz-adv-x="1859" 
d="M1600 273h-1500v138h1500v-138z" />
    <glyph glyph-name="space" unicode=" " horiz-adv-x="600" 
 />
    <glyph glyph-name="space.001" horiz-adv-x="250" 
 />
    <glyph glyph-name="space.ss01" horiz-adv-x="400" 
 />
    <glyph glyph-name="space.ss08" horiz-adv-x="1250" 
 />
    <glyph glyph-name="cent" unicode="&#xa2;" horiz-adv-x="691" 
d="M353 143c62 0 98 47 98 113h169c0 -121 -74 -214 -191 -241v-115h-160v115c-122 32 -200 142 -200 286s78 254 200 286v113h160v-112c117 -27 191 -116 191 -232h-169c0 60 -36 103 -98 103h-10c-67 0 -107 -66 -107 -158s40 -158 107 -158h10z" />
    <glyph glyph-name="dollar" unicode="$" horiz-adv-x="711" 
d="M646 206c0 -124 -77 -201 -207 -218v-127h-160v129c-138 21 -218 113 -214 250h166c0 -75 44 -118 114 -118h42c60 0 96 27 96 75c0 67 -95 77 -167 92c-159 32 -235 63 -235 208c0 119 70 194 188 213v128h160v-127c132 -20 208 -107 203 -240h-166
c3 67 -35 107 -95 107h-42c-53 -2 -85 -23 -85 -65c0 -50 21 -70 135 -88c140 -23 267 -50 267 -219z" />
    <glyph glyph-name="plus" unicode="+" horiz-adv-x="690" 
d="M415 285v-175h-140v175h-175v140h175v175h140v-175h175v-140h-175z" />
    <glyph glyph-name="minus" unicode="&#x2212;" horiz-adv-x="600" 
d="M540 285h-490v140h490v-140z" />
    <glyph glyph-name="equal" unicode="=" horiz-adv-x="640" 
d="M540 383h-440v130h440v-130zM540 193h-440v130h440v-130z" />
    <glyph glyph-name="at" unicode="@" horiz-adv-x="999" 
d="M545 718c246 0 365 -108 365 -368l-2 -350h-175v51c-25 -42 -80 -65 -143 -65c-171 0 -215 72 -215 240s44 240 215 240c61 0 115 -21 141 -61c-13 135 -77 168 -216 168h-40c-156 0 -218 -42 -218 -223v-350h-177v350c0 260 119 368 365 368h100zM625 99
c67 0 99 45 108 94v66c-9 49 -41 94 -108 94c-85 0 -112 -38 -112 -127c0 -90 27 -128 112 -127z" />
    <glyph glyph-name="ampersand" unicode="&#x26;" horiz-adv-x="818" 
d="M691 284v-33c0 -181 -91 -266 -268 -266h-75c-177 0 -268 75 -268 229c0 126 51 197 151 217l-121 168v101h490v-149h-276l96 -147v-100h-45c-83 0 -126 -28 -126 -90c0 -61 39 -89 116 -89h41c77 0 116 38 116 126v167h276v-134h-107z" />
  </font>
</defs>
</svg>
